<?xml version="1.0" encoding="utf-8"?>
<svg fill="#0718c4" height="800px" width="800px" version="1.1" id="Capa_1" viewBox="-47.17 -47.17 566.04 566.04" stroke="#0718c4" xmlns="http://www.w3.org/2000/svg">
  <g id="SVGRepo_bgCarrier" stroke-width="0"/>
  <g id="SVGRepo_tracerCarrier" stroke-linecap="round" stroke-linejoin="round" stroke="#CCCCCC" stroke-width="0.9434020000000001"/>
  <g id="SVGRepo_iconCarrier">
    <g>
      <path d="M 433.601 67.001 C 408.901 42.301 376.201 28.801 341.301 28.801 C 306.401 28.801 273.601 42.401 248.901 67.101 L 236.001 80.001 L 222.901 66.901 C 198.201 42.201 165.301 28.501 130.401 28.501 C 95.601 28.501 62.801 42.101 38.201 66.701 C 13.501 91.401 -0.099 124.201 0.001 159.101 C 0.001 194.001 13.701 226.701 38.401 251.401 L 226.201 439.201 C 228.801 441.801 232.301 443.201 235.701 443.201 C 239.101 443.201 242.601 441.901 245.201 439.301 L 433.401 251.801 C 458.101 227.101 471.701 194.301 471.701 159.401 C 471.801 124.501 458.301 91.701 433.601 67.001 Z"/>
    </g>
  </g>
</svg>